<?xml version="1.0" encoding="UTF-8" standalone="no"?>
<!DOCTYPE svg PUBLIC "-//W3C//DTD SVG 1.1//EN" "http://www.w3.org/Graphics/SVG/1.1/DTD/svg11.dtd">
<!-- Generated by graphviz version 2.40.1 (20161225.0304)
 -->
<!-- Title: TD Pages: 1 -->
<svg xmlns="http://www.w3.org/2000/svg" xmlns:xlink="http://www.w3.org/1999/xlink" width="599pt" height="757pt" viewBox="0.00 0.00 598.50 756.90">
  <g id="graph0" class="graph" transform="scale(1 1) rotate(0) translate(4 752.9)">
    <title>TD</title>
    <g id="a_graph0">
      <a xlink:title="Click the boxes for further information">
        <polygon fill="#ffffff" stroke="transparent" points="-4,4 -4,-752.9 594.5,-752.9 594.5,4 -4,4"/>
      </a>
    </g>
    <!-- 3&#45;&gt;4 -->
    <!-- 3&#45;&gt;5 -->
    <!-- 4&#45;&gt;5 -->
    <g id="edge3" class="edge">
      <title>4-&gt;5</title>
      <path fill="none" stroke="#000000" d="M302.821,-639C311.202,-639 319.6641,-639 328.0915,-639"/>
      <polygon fill="#000000" stroke="#000000" points="328.346,-642.5001 338.346,-639 328.3459,-635.5001 328.346,-642.5001"/>
    </g>
    <!-- 4&#45;&gt;6 -->
    <g id="edge4" class="edge">
      <title>4-&gt;6</title>
      <path fill="none" stroke="#000000" d="M176.5,-611.6807C176.5,-588.6675 176.5,-555.8572 176.5,-532.5133"/>
      <polygon fill="#000000" stroke="#000000" points="180.0001,-532.211 176.5,-522.2111 173.0001,-532.2111 180.0001,-532.211"/>
    </g>
    <!-- 5&#45;&gt;7 -->
    <!-- 6&#45;&gt;7 -->
    <g id="edge5" class="edge">
      <title>6-&gt;7</title>
      <path fill="none" stroke="#000000" d="M302.821,-504C311.202,-504 319.6641,-504 328.0915,-504"/>
      <polygon fill="#000000" stroke="#000000" points="328.346,-507.5001 338.346,-504 328.3459,-500.5001 328.346,-507.5001"/>
    </g>
    <!-- 6&#45;&gt;8 -->
    <g id="edge6" class="edge">
      <title>6-&gt;8</title>
      <path fill="none" stroke="#000000" d="M176.5,-485.8313C176.5,-478.1309 176.5,-468.9743 176.5,-460.4166"/>
      <polygon fill="#000000" stroke="#000000" points="180.0001,-460.4132 176.5,-450.4133 173.0001,-460.4133 180.0001,-460.4132"/>
    </g>
    <!-- 7&#45;&gt;9 -->
    <!-- 8&#45;&gt;9 -->
    <g id="edge7" class="edge">
      <title>8-&gt;9</title>
      <path fill="none" stroke="#000000" d="M302.821,-432C311.202,-432 319.6641,-432 328.0915,-432"/>
      <polygon fill="#000000" stroke="#000000" points="328.346,-435.5001 338.346,-432 328.3459,-428.5001 328.346,-435.5001"/>
    </g>
    <!-- 8&#45;&gt;10 -->
    <g id="edge8" class="edge">
      <title>8-&gt;10</title>
      <path fill="none" stroke="#000000" d="M176.5,-413.8419C176.5,-399.1888 176.5,-378.311 176.5,-361.443"/>
      <polygon fill="#000000" stroke="#000000" points="180.0001,-361.043 176.5,-351.043 173.0001,-361.043 180.0001,-361.043"/>
    </g>
    <!-- 9&#45;&gt;11 -->
    <!-- 10&#45;&gt;12 -->
    <g id="edge10" class="edge">
      <title>10-&gt;12</title>
      <path fill="none" stroke="#000000" d="M176.5,-314.8481C176.5,-293.1808 176.5,-256.1388 176.5,-226.3543"/>
      <polygon fill="#000000" stroke="#000000" points="180.0001,-226.1589 176.5,-216.1589 173.0001,-226.1589 180.0001,-226.1589"/>
    </g>
    <!-- 10&#45;&gt;C -->
    <g id="edge9" class="edge">
      <title>10-&gt;C</title>
      <path fill="none" stroke="#000000" d="M302.821,-333C311.202,-333 319.6641,-333 328.0915,-333"/>
      <polygon fill="#000000" stroke="#000000" points="328.346,-336.5001 338.346,-333 328.3459,-329.5001 328.346,-336.5001"/>
    </g>
    <!-- 12&#45;&gt;23 -->
    <g id="edge14" class="edge">
      <title>12-&gt;23</title>
      <path fill="none" stroke="#000000" d="M176.5,-143.7371C176.5,-135.6338 176.5,-126.9311 176.5,-118.4791"/>
      <polygon fill="#000000" stroke="#000000" points="180.0001,-118.351 176.5,-108.351 173.0001,-118.351 180.0001,-118.351"/>
    </g>
    <!-- identification -->
    <g id="node1" class="node">
      <title>identification</title>
      <g id="a_node1">
        <a xlink:title="Blue identification box">
          <path fill="#bcd2ee" stroke="#bcd2ee" d="M19.3333,-702C19.3333,-702 9.6667,-702 9.6667,-702 4.8333,-702 0,-697.1666 0,-692.3333 0,-692.3333 0,-585.6666 0,-585.6666 0,-580.8333 4.8333,-576 9.6667,-576 9.6667,-576 19.3333,-576 19.3333,-576 24.1667,-576 29,-580.8333 29,-585.6666 29,-585.6666 29,-692.3333 29,-692.3333 29,-697.1666 24.1667,-702 19.3333,-702"/>
          <text text-anchor="middle" x="635.7" y="16.5" font-family="Roman" font-size="11.00" fill="#000000" transform="rotate(-90)">Identification</text>
        </a>
      </g>
    </g>
    <!-- screening -->
    <g id="node2" class="node">
      <title>screening</title>
      <g id="a_node2">
        <a xlink:title="Blue screening box">
          <path fill="#bcd2ee" stroke="#bcd2ee" d="M19.3333,-522C19.3333,-522 9.6667,-522 9.6667,-522 4.8333,-522 0,-517.1667 0,-512.3333 0,-512.3333 0,-297.6667 0,-297.6667 0,-292.8333 4.8333,-288 9.6667,-288 9.6667,-288 19.3333,-288 19.3333,-288 24.1667,-288 29,-292.8333 29,-297.6667 29,-297.6667 29,-512.3333 29,-512.3333 29,-517.1667 24.1667,-522 19.3333,-522"/>
          <text text-anchor="middle" x="401.7" y="16.5" font-family="Roman" font-size="11.00" fill="#000000" transform="rotate(-90)">Screening</text>
        </a>
      </g>
    </g>
    <!-- included -->
    <g id="node3" class="node">
      <title>included</title>
      <g id="a_node3">
        <a xlink:title="Blue included box">
          <path fill="#bcd2ee" stroke="#bcd2ee" d="M19.3333,-252C19.3333,-252 9.6667,-252 9.6667,-252 4.8333,-252 0,-247.1667 0,-242.3333 0,-242.3333 0,-9.6667 0,-9.6667 0,-4.8333 4.8333,0 9.6667,0 9.6667,0 19.3333,0 19.3333,0 24.1667,0 29,-4.8333 29,-9.6667 29,-9.6667 29,-242.3333 29,-242.3333 29,-247.1667 24.1667,-252 19.3333,-252"/>
          <text text-anchor="middle" x="122.7" y="16.5" font-family="Roman" font-size="11.00" fill="#000000" transform="rotate(-90)">Included</text>
        </a>
      </g>
    </g>
    <!-- 3 -->
    <g id="node4" class="node">
      <title>3</title>
      <g id="a_node4">
        <a xlink:title="Yellow title box; Identification of new studies via databases and registers">
          <path fill="#ffc125" stroke="#ffc125" d="M580.8333,-748.9C580.8333,-748.9 60.1667,-748.9 60.1667,-748.9 55.3333,-748.9 50.5,-744.0667 50.5,-739.2333 50.5,-739.2333 50.5,-729.5667 50.5,-729.5667 50.5,-724.7333 55.3333,-719.9 60.1667,-719.9 60.1667,-719.9 580.8333,-719.9 580.8333,-719.9 585.6667,-719.9 590.5,-724.7333 590.5,-729.5667 590.5,-729.5667 590.5,-739.2333 590.5,-739.2333 590.5,-744.0667 585.6667,-748.9 580.8333,-748.9"/>
          <text text-anchor="middle" x="320.5" y="-731.1" font-family="Roman" font-size="11.00" fill="#000000">Identification of new studies via databases and registers</text>
        </a>
      </g>
    </g>
    <!-- 4 -->
    <g id="node5" class="node">
      <title>4</title>
      <g id="a_node5">
        <a xlink:title="Records identified from: Databases and Registers">
          <polygon fill="none" stroke="#000000" points="302.5,-666 50.5,-666 50.5,-612 302.5,-612 302.5,-666"/>
          <text text-anchor="middle" x="176.5" y="-648.9" font-family="Roman" font-size="11.00" fill="#000000">Records identified from:</text>
          <text text-anchor="middle" x="176.5" y="-635.7" font-family="Roman" font-size="11.00" fill="#000000">Databases (n = 148)</text>
          <text text-anchor="middle" x="176.5" y="-622.5" font-family="Roman" font-size="11.00" fill="#000000">Registers (n = 0)</text>
        </a>
      </g>
    </g>
    <!-- 5 -->
    <g id="node6" class="node">
      <title>5</title>
      <g id="a_node6">
        <a xlink:title="Duplicate records">
          <polygon fill="none" stroke="#000000" points="590.5,-676 338.5,-676 338.5,-602 590.5,-602 590.5,-676"/>
          <text text-anchor="middle" x="464.5" y="-662.1" font-family="Roman" font-size="11.00" fill="#000000">Records removed before screening:</text>
          <text text-anchor="middle" x="464.5" y="-648.9" font-family="Roman" font-size="11.00" fill="#000000">Duplicate records (n = 0)</text>
          <text text-anchor="middle" x="464.5" y="-635.7" font-family="Roman" font-size="11.00" fill="#000000">Records marked as ineligible by automation</text>
          <text text-anchor="middle" x="464.5" y="-622.5" font-family="Roman" font-size="11.00" fill="#000000">tools (n = 0)</text>
          <text text-anchor="middle" x="464.5" y="-609.3" font-family="Roman" font-size="11.00" fill="#000000">Records removed for other reasons (n = 0)</text>
        </a>
      </g>
    </g>
    <!-- 6 -->
    <g id="node7" class="node">
      <title>6</title>
      <g id="a_node7">
        <a xlink:title="Records screened (databases and registers)">
          <polygon fill="none" stroke="#000000" points="302.5,-522 50.5,-522 50.5,-486 302.5,-486 302.5,-522"/>
          <text text-anchor="middle" x="176.5" y="-507.3" font-family="Roman" font-size="11.00" fill="#000000">Records screened</text>
          <text text-anchor="middle" x="176.5" y="-494.1" font-family="Roman" font-size="11.00" fill="#000000">(n = 148)</text>
        </a>
      </g>
    </g>
    <!-- 7 -->
    <g id="node8" class="node">
      <title>7</title>
      <g id="a_node8">
        <a xlink:title="Records excluded (databases and registers)">
          <polygon fill="none" stroke="#000000" points="590.5,-522 338.5,-522 338.5,-486 590.5,-486 590.5,-522"/>
          <text text-anchor="middle" x="464.5" y="-507.3" font-family="Roman" font-size="11.00" fill="#000000">Records excluded</text>
          <text text-anchor="middle" x="464.5" y="-494.1" font-family="Roman" font-size="11.00" fill="#000000">(n = 137)</text>
        </a>
      </g>
    </g>
    <!-- 8 -->
    <g id="node9" class="node">
      <title>8</title>
      <g id="a_node9">
        <a xlink:title="Reports sought for retrieval (databases and registers)">
          <polygon fill="none" stroke="#000000" points="302.5,-450 50.5,-450 50.5,-414 302.5,-414 302.5,-450"/>
          <text text-anchor="middle" x="176.5" y="-435.3" font-family="Roman" font-size="11.00" fill="#000000">Reports sought for retrieval</text>
          <text text-anchor="middle" x="176.5" y="-422.1" font-family="Roman" font-size="11.00" fill="#000000">(n = 11)</text>
        </a>
      </g>
    </g>
    <!-- 9 -->
    <g id="node10" class="node">
      <title>9</title>
      <g id="a_node10">
        <a xlink:title="Reports not retrieved (databases and registers)">
          <polygon fill="none" stroke="#000000" points="590.5,-450 338.5,-450 338.5,-414 590.5,-414 590.5,-450"/>
          <text text-anchor="middle" x="464.5" y="-435.3" font-family="Roman" font-size="11.00" fill="#000000">Reports not retrieved</text>
          <text text-anchor="middle" x="464.5" y="-422.1" font-family="Roman" font-size="11.00" fill="#000000">(n = 0)</text>
        </a>
      </g>
    </g>
    <!-- 10 -->
    <g id="node11" class="node">
      <title>10</title>
      <g id="a_node11">
        <a xlink:title="Reports assessed for eligibility (databases and registers)">
          <polygon fill="none" stroke="#000000" points="302.5,-351 50.5,-351 50.5,-315 302.5,-315 302.5,-351"/>
          <text text-anchor="middle" x="176.5" y="-336.3" font-family="Roman" font-size="11.00" fill="#000000">Reports assessed for eligibility</text>
          <text text-anchor="middle" x="176.5" y="-323.1" font-family="Roman" font-size="11.00" fill="#000000">(n = 11)</text>
        </a>
      </g>
    </g>
    <!-- 11 -->
    <g id="node12" class="node">
      <title>11</title>
      <g id="a_node12">
        <a xlink:title="Reports excluded (databases and registers)">
          <polygon fill="#ffffff" stroke="#000000" points="590.5,-370 338.5,-370 338.5,-296 590.5,-296 590.5,-370"/>
          <text text-anchor="middle" x="464.5" y="-356.1" font-family="Roman" font-size="11.00" fill="#000000">Reports excluded:</text>
          <text text-anchor="middle" x="464.5" y="-342.9" font-family="Roman" font-size="11.00" fill="#000000">Not eligible after full-text</text>
          <text text-anchor="middle" x="464.5" y="-329.7" font-family="Roman" font-size="11.00" fill="#000000">assessment (n = 6)</text>
          <text text-anchor="middle" x="464.5" y="-316.5" font-family="Roman" font-size="11.00" fill="#000000">Not suitable for quantitative</text>
          <text text-anchor="middle" x="464.5" y="-303.3" font-family="Roman" font-size="11.00" fill="#000000">synthesis (n = 1)</text>
        </a>
      </g>
    </g>
    <!-- 12 -->
    <g id="node13" class="node">
      <title>12</title>
      <g id="a_node13">
        <a xlink:title="New studies included in review">
          <polygon fill="none" stroke="#000000" points="302.5,-216 50.5,-216 50.5,-144 302.5,-144 302.5,-216"/>
          <text text-anchor="middle" x="176.5" y="-196.5" font-family="Roman" font-size="11.00" fill="#000000">New studies included in review</text>
          <text text-anchor="middle" x="176.5" y="-183.3" font-family="Roman" font-size="11.00" fill="#000000">(n = 4)</text>
          <text text-anchor="middle" x="176.5" y="-170.1" font-family="Roman" font-size="11.00" fill="#000000">Reports of new included studies</text>
          <text text-anchor="middle" x="176.5" y="-156.9" font-family="Roman" font-size="11.00" fill="#000000">(n = 4)</text>
        </a>
      </g>
    </g>
    <!-- 23 -->
    <g id="node14" class="node">
      <title>23</title>
      <g id="a_node14">
        <a xlink:title="Total studies included in meta-analysis">
          <polygon fill="none" stroke="#000000" points="302.5,-108 50.5,-108 50.5,-36 302.5,-36 302.5,-108"/>
          <text text-anchor="middle" x="176.5" y="-88.5" font-family="Roman" font-size="11.00" fill="#000000">Total studies included in</text>
          <text text-anchor="middle" x="176.5" y="-75.3" font-family="Roman" font-size="11.00" fill="#000000">meta-analysis (n = 4)</text>
          <text text-anchor="middle" x="176.5" y="-62.1" font-family="Roman" font-size="11.00" fill="#000000">Reports of total included studies</text>
          <text text-anchor="middle" x="176.5" y="-48.9" font-family="Roman" font-size="11.00" fill="#000000">in meta-analysis (n = 4)</text>
        </a>
      </g>
    </g>
    <!-- C -->
  </g>
</svg>
